<mxfile host="Electron" modified="2023-12-27T10:59:31.245Z" agent="Mozilla/5.0 (Windows NT 10.0; Win64; x64) AppleWebKit/537.36 (KHTML, like Gecko) draw.io/22.0.3 Chrome/114.0.5735.289 Electron/25.8.4 Safari/537.36" etag="pUAvjmwvYdCCEIkwhlYX" version="22.0.3" type="device">
  <diagram id="9OutXwN00h1z7JGbUhyT" name="第 3 页">
    <mxGraphModel dx="1206" dy="702" grid="1" gridSize="10" guides="1" tooltips="1" connect="1" arrows="1" fold="1" page="1" pageScale="1" pageWidth="4681" pageHeight="3300" math="0" shadow="0">
      <root>
        <mxCell id="0" />
        <mxCell id="1" parent="0" />
        <mxCell id="X4Ir-CnpmJpdvNrsFsG_-1" style="edgeStyle=orthogonalEdgeStyle;rounded=0;html=1;labelBackgroundColor=none;startSize=5;endArrow=classicThin;endFill=1;endSize=5;jettySize=auto;orthogonalLoop=1;strokeWidth=1;fontFamily=Verdana;fontSize=8;exitX=0.5;exitY=1;exitDx=0;exitDy=0;entryX=0.5;entryY=0;entryDx=0;entryDy=0;" edge="1" parent="1" source="X4Ir-CnpmJpdvNrsFsG_-3" target="X4Ir-CnpmJpdvNrsFsG_-4">
          <mxGeometry relative="1" as="geometry">
            <mxPoint x="299.6566259765625" y="409.99668701171873" as="sourcePoint" />
            <mxPoint x="259.6566259765625" y="389.99668701171873" as="targetPoint" />
          </mxGeometry>
        </mxCell>
        <mxCell id="X4Ir-CnpmJpdvNrsFsG_-3" value="进入moveBall函数" style="rounded=1;whiteSpace=wrap;html=1;fontSize=12;glass=0;strokeWidth=1;shadow=0;" vertex="1" parent="1">
          <mxGeometry x="199.6566259765625" y="279.99668701171873" width="120" height="40" as="geometry" />
        </mxCell>
        <mxCell id="X4Ir-CnpmJpdvNrsFsG_-4" value="&lt;font face=&quot;Verdana&quot;&gt;&lt;span style=&quot;font-size: 14px;&quot;&gt;初始化弹球&lt;br&gt;撞地次数&lt;/span&gt;&lt;/font&gt;" style="shape=parallelogram;perimeter=parallelogramPerimeter;whiteSpace=wrap;html=1;fixedSize=1;hachureGap=4;fontFamily=Architects Daughter;fontSource=https%3A%2F%2Ffonts.googleapis.com%2Fcss%3Ffamily%3DArchitects%2BDaughter;fontSize=20;" vertex="1" parent="1">
          <mxGeometry x="194.6566259765625" y="349.99668701171873" width="130" height="70" as="geometry" />
        </mxCell>
        <mxCell id="X4Ir-CnpmJpdvNrsFsG_-5" style="edgeStyle=orthogonalEdgeStyle;rounded=0;html=1;labelBackgroundColor=none;startSize=5;endArrow=classicThin;endFill=1;endSize=5;jettySize=auto;orthogonalLoop=1;strokeWidth=1;fontFamily=Verdana;fontSize=8;exitX=0.5;exitY=1;exitDx=0;exitDy=0;entryX=0.5;entryY=0;entryDx=0;entryDy=0;" edge="1" parent="1" source="X4Ir-CnpmJpdvNrsFsG_-4" target="6iSSrntmM3O-Yhs3QLni-1">
          <mxGeometry relative="1" as="geometry">
            <mxPoint x="309.99" y="480.33" as="sourcePoint" />
            <mxPoint x="259.6566259765625" y="469.9966870117187" as="targetPoint" />
          </mxGeometry>
        </mxCell>
        <mxCell id="X4Ir-CnpmJpdvNrsFsG_-11" style="edgeStyle=orthogonalEdgeStyle;rounded=0;html=1;labelBackgroundColor=none;startSize=5;endArrow=classicThin;endFill=1;endSize=5;jettySize=auto;orthogonalLoop=1;strokeWidth=1;fontFamily=Verdana;fontSize=8;exitX=0.5;exitY=1;exitDx=0;exitDy=0;entryX=0.5;entryY=0;entryDx=0;entryDy=0;" edge="1" parent="1" source="6iSSrntmM3O-Yhs3QLni-1" target="6iSSrntmM3O-Yhs3QLni-26">
          <mxGeometry relative="1" as="geometry">
            <mxPoint x="249.9966259765625" y="614.9966870117187" as="sourcePoint" />
            <mxPoint x="259.6600000000001" y="610" as="targetPoint" />
          </mxGeometry>
        </mxCell>
        <mxCell id="6iSSrntmM3O-Yhs3QLni-3" value="Yes" style="edgeLabel;html=1;align=center;verticalAlign=middle;resizable=0;points=[];" vertex="1" connectable="0" parent="X4Ir-CnpmJpdvNrsFsG_-11">
          <mxGeometry x="-0.1733" y="-1" relative="1" as="geometry">
            <mxPoint x="11" as="offset" />
          </mxGeometry>
        </mxCell>
        <mxCell id="X4Ir-CnpmJpdvNrsFsG_-15" style="edgeStyle=orthogonalEdgeStyle;rounded=0;html=1;labelBackgroundColor=none;startSize=5;endArrow=classicThin;endFill=1;endSize=5;jettySize=auto;orthogonalLoop=1;strokeWidth=1;fontFamily=Verdana;fontSize=8;exitX=0.5;exitY=1;exitDx=0;exitDy=0;entryX=0;entryY=0.5;entryDx=0;entryDy=0;" edge="1" parent="1" source="6iSSrntmM3O-Yhs3QLni-26" target="6iSSrntmM3O-Yhs3QLni-1">
          <mxGeometry relative="1" as="geometry">
            <mxPoint x="259.6600000000001" y="700" as="sourcePoint" />
            <mxPoint x="280" y="820" as="targetPoint" />
            <Array as="points">
              <mxPoint x="260" y="760" />
              <mxPoint x="120" y="760" />
              <mxPoint x="120" y="515" />
            </Array>
          </mxGeometry>
        </mxCell>
        <mxCell id="6iSSrntmM3O-Yhs3QLni-1" value="&lt;span style=&quot;font-size: 13px;&quot;&gt;对于弹球列表中&lt;br&gt;的每个弹球&lt;/span&gt;" style="rhombus;whiteSpace=wrap;html=1;rounded=0;shadow=1;labelBackgroundColor=none;strokeWidth=1;fontFamily=Verdana;fontSize=8;align=center;" vertex="1" parent="1">
          <mxGeometry x="194.65662597656254" y="469.9966870117188" width="130" height="90" as="geometry" />
        </mxCell>
        <mxCell id="6iSSrntmM3O-Yhs3QLni-4" value="No" style="edgeStyle=orthogonalEdgeStyle;rounded=0;html=1;labelBackgroundColor=none;startSize=5;endArrow=classicThin;endFill=1;endSize=5;jettySize=auto;orthogonalLoop=1;strokeWidth=1;fontFamily=Verdana;fontSize=8;entryX=0.5;entryY=0;entryDx=0;entryDy=0;exitX=1;exitY=0.5;exitDx=0;exitDy=0;" edge="1" parent="1" source="6iSSrntmM3O-Yhs3QLni-1" target="6iSSrntmM3O-Yhs3QLni-5">
          <mxGeometry x="-0.6667" y="10" relative="1" as="geometry">
            <mxPoint as="offset" />
            <mxPoint x="370" y="530" as="sourcePoint" />
            <mxPoint x="540" y="645" as="targetPoint" />
          </mxGeometry>
        </mxCell>
        <mxCell id="6iSSrntmM3O-Yhs3QLni-5" value="&lt;font style=&quot;font-size: 12px;&quot;&gt;对于弹球列表中&lt;br style=&quot;border-color: var(--border-color);&quot;&gt;的每个弹球&lt;/font&gt;" style="rhombus;whiteSpace=wrap;html=1;rounded=0;shadow=1;labelBackgroundColor=none;strokeWidth=1;fontFamily=Verdana;fontSize=8;align=center;" vertex="1" parent="1">
          <mxGeometry x="445.3366259765626" y="599.9966870117188" width="130" height="90" as="geometry" />
        </mxCell>
        <mxCell id="6iSSrntmM3O-Yhs3QLni-6" value="Yes" style="edgeStyle=orthogonalEdgeStyle;rounded=0;html=1;labelBackgroundColor=none;startSize=5;endArrow=classicThin;endFill=1;endSize=5;jettySize=auto;orthogonalLoop=1;strokeWidth=1;fontFamily=Verdana;fontSize=8;exitX=0.5;exitY=1;exitDx=0;exitDy=0;entryX=0.5;entryY=0;entryDx=0;entryDy=0;" edge="1" parent="1" source="6iSSrntmM3O-Yhs3QLni-5" target="6iSSrntmM3O-Yhs3QLni-7">
          <mxGeometry x="-0.6667" y="10" relative="1" as="geometry">
            <mxPoint as="offset" />
            <mxPoint x="500" y="770" as="sourcePoint" />
            <mxPoint x="510" y="790" as="targetPoint" />
          </mxGeometry>
        </mxCell>
        <mxCell id="6iSSrntmM3O-Yhs3QLni-7" value="&lt;font style=&quot;font-size: 15px;&quot;&gt;如果弹球&lt;br&gt;碰到“地板”&lt;/font&gt;" style="rhombus;whiteSpace=wrap;html=1;rounded=0;shadow=1;labelBackgroundColor=none;strokeWidth=1;fontFamily=Verdana;fontSize=8;align=center;" vertex="1" parent="1">
          <mxGeometry x="445.3366259765626" y="759.9966870117188" width="130" height="90" as="geometry" />
        </mxCell>
        <mxCell id="6iSSrntmM3O-Yhs3QLni-8" value="Yes" style="edgeStyle=orthogonalEdgeStyle;rounded=0;html=1;labelBackgroundColor=none;startSize=5;endArrow=classicThin;endFill=1;endSize=5;jettySize=auto;orthogonalLoop=1;strokeWidth=1;fontFamily=Verdana;fontSize=8;exitX=0.5;exitY=1;exitDx=0;exitDy=0;entryX=0.5;entryY=0;entryDx=0;entryDy=0;" edge="1" parent="1" source="6iSSrntmM3O-Yhs3QLni-7" target="6iSSrntmM3O-Yhs3QLni-20">
          <mxGeometry x="-0.6667" y="10" relative="1" as="geometry">
            <mxPoint as="offset" />
            <mxPoint x="480" y="890" as="sourcePoint" />
            <mxPoint x="510.33662597656235" y="899.9966870117187" as="targetPoint" />
          </mxGeometry>
        </mxCell>
        <mxCell id="6iSSrntmM3O-Yhs3QLni-10" value="No" style="edgeStyle=orthogonalEdgeStyle;rounded=0;html=1;labelBackgroundColor=none;startSize=5;endArrow=classicThin;endFill=1;endSize=5;jettySize=auto;orthogonalLoop=1;strokeWidth=1;fontFamily=Verdana;fontSize=8;entryX=0.5;entryY=0;entryDx=0;entryDy=0;exitX=0;exitY=0.5;exitDx=0;exitDy=0;" edge="1" parent="1" source="6iSSrntmM3O-Yhs3QLni-7" target="6iSSrntmM3O-Yhs3QLni-11">
          <mxGeometry x="-0.6667" y="10" relative="1" as="geometry">
            <mxPoint as="offset" />
            <mxPoint x="400" y="840" as="sourcePoint" />
            <mxPoint x="680" y="890" as="targetPoint" />
            <Array as="points">
              <mxPoint x="245" y="805" />
            </Array>
          </mxGeometry>
        </mxCell>
        <mxCell id="6iSSrntmM3O-Yhs3QLni-11" value="&lt;font style=&quot;font-size: 13px;&quot;&gt;如果弹球碰到&lt;br&gt;上下边界&lt;br&gt;&lt;/font&gt;" style="rhombus;whiteSpace=wrap;html=1;rounded=0;shadow=1;labelBackgroundColor=none;strokeWidth=1;fontFamily=Verdana;fontSize=8;align=center;" vertex="1" parent="1">
          <mxGeometry x="179.99662597656254" y="1029.9966870117187" width="130" height="90" as="geometry" />
        </mxCell>
        <mxCell id="6iSSrntmM3O-Yhs3QLni-13" value="Yes" style="edgeStyle=orthogonalEdgeStyle;rounded=0;html=1;labelBackgroundColor=none;startSize=5;endArrow=classicThin;endFill=1;endSize=5;jettySize=auto;orthogonalLoop=1;strokeWidth=1;fontFamily=Verdana;fontSize=8;exitX=0.5;exitY=1;exitDx=0;exitDy=0;entryX=0.5;entryY=0;entryDx=0;entryDy=0;" edge="1" parent="1" source="6iSSrntmM3O-Yhs3QLni-11" target="6iSSrntmM3O-Yhs3QLni-21">
          <mxGeometry x="-0.6667" y="10" relative="1" as="geometry">
            <mxPoint as="offset" />
            <mxPoint x="935" y="1220" as="sourcePoint" />
            <mxPoint x="684.9966259765624" y="1039.9966870117187" as="targetPoint" />
          </mxGeometry>
        </mxCell>
        <mxCell id="6iSSrntmM3O-Yhs3QLni-14" value="No" style="edgeStyle=orthogonalEdgeStyle;rounded=0;html=1;labelBackgroundColor=none;startSize=5;endArrow=classicThin;endFill=1;endSize=5;jettySize=auto;orthogonalLoop=1;strokeWidth=1;fontFamily=Verdana;fontSize=8;exitX=1;exitY=0.5;exitDx=0;exitDy=0;entryX=0.5;entryY=0;entryDx=0;entryDy=0;" edge="1" parent="1" target="6iSSrntmM3O-Yhs3QLni-15" source="6iSSrntmM3O-Yhs3QLni-11">
          <mxGeometry x="-0.6667" y="10" relative="1" as="geometry">
            <mxPoint as="offset" />
            <mxPoint x="789.9966259765624" y="894.9966870117187" as="sourcePoint" />
            <mxPoint x="965" y="960" as="targetPoint" />
          </mxGeometry>
        </mxCell>
        <mxCell id="6iSSrntmM3O-Yhs3QLni-15" value="&lt;font style=&quot;font-size: 13px;&quot;&gt;如果弹球碰到&lt;br&gt;左右边界&lt;br&gt;&lt;/font&gt;" style="rhombus;whiteSpace=wrap;html=1;rounded=0;shadow=1;labelBackgroundColor=none;strokeWidth=1;fontFamily=Verdana;fontSize=8;align=center;" vertex="1" parent="1">
          <mxGeometry x="445.3366259765625" y="1109.9966870117187" width="130" height="90" as="geometry" />
        </mxCell>
        <mxCell id="6iSSrntmM3O-Yhs3QLni-17" value="Yes" style="edgeStyle=orthogonalEdgeStyle;rounded=0;html=1;labelBackgroundColor=none;startSize=5;endArrow=classicThin;endFill=1;endSize=5;jettySize=auto;orthogonalLoop=1;strokeWidth=1;fontFamily=Verdana;fontSize=8;exitX=0.5;exitY=1;exitDx=0;exitDy=0;entryX=0.5;entryY=0;entryDx=0;entryDy=0;" edge="1" parent="1" source="6iSSrntmM3O-Yhs3QLni-15" target="6iSSrntmM3O-Yhs3QLni-23">
          <mxGeometry x="-0.6667" y="10" relative="1" as="geometry">
            <mxPoint as="offset" />
            <mxPoint x="935" y="740" as="sourcePoint" />
            <mxPoint x="864.9966259765624" y="1219.9966870117187" as="targetPoint" />
          </mxGeometry>
        </mxCell>
        <mxCell id="6iSSrntmM3O-Yhs3QLni-20" value="&lt;font style=&quot;border-color: var(--border-color); font-size: 14px;&quot; face=&quot;Verdana&quot;&gt;发出响声&lt;/font&gt;并记录&lt;br style=&quot;border-color: var(--border-color); font-family: &amp;quot;Architects Daughter&amp;quot;; font-size: 14px;&quot;&gt;&lt;span style=&quot;font-family: &amp;quot;Architects Daughter&amp;quot;; font-size: 14px;&quot;&gt;一次撞地次数&lt;/span&gt;" style="rounded=0;whiteSpace=wrap;html=1;" vertex="1" parent="1">
          <mxGeometry x="450.34000000000003" y="910" width="120" height="60" as="geometry" />
        </mxCell>
        <mxCell id="6iSSrntmM3O-Yhs3QLni-21" value="弹球纵向的&lt;br style=&quot;border-color: var(--border-color); font-family: Verdana; font-size: 13px;&quot;&gt;&lt;span style=&quot;font-family: Verdana; font-size: 13px;&quot;&gt;运动方向翻转&lt;/span&gt;" style="rounded=0;whiteSpace=wrap;html=1;" vertex="1" parent="1">
          <mxGeometry x="185" y="1170" width="120" height="60" as="geometry" />
        </mxCell>
        <mxCell id="6iSSrntmM3O-Yhs3QLni-23" value="弹球横向的&lt;br style=&quot;border-color: var(--border-color); font-family: Verdana; font-size: 13px;&quot;&gt;&lt;span style=&quot;font-family: Verdana; font-size: 13px;&quot;&gt;运动方向翻转&lt;/span&gt;" style="rounded=0;whiteSpace=wrap;html=1;" vertex="1" parent="1">
          <mxGeometry x="450.34" y="1250" width="120" height="60" as="geometry" />
        </mxCell>
        <mxCell id="6iSSrntmM3O-Yhs3QLni-26" value="&lt;font style=&quot;font-size: 14px;&quot;&gt;&lt;font style=&quot;border-color: var(--border-color); font-size: 14px;&quot; face=&quot;Verdana&quot;&gt;更新弹球的新位置：&lt;br style=&quot;border-color: var(--border-color);&quot;&gt;&lt;/font&gt;行位置为原行位置&lt;br&gt;加行偏移量&lt;br style=&quot;border-color: var(--border-color); font-family: &amp;quot;Architects Daughter&amp;quot;;&quot;&gt;&lt;span style=&quot;font-family: &amp;quot;Architects Daughter&amp;quot;;&quot;&gt;列位置为原列位置&lt;br&gt;加列偏移量&lt;/span&gt;&lt;/font&gt;" style="rounded=0;whiteSpace=wrap;html=1;" vertex="1" parent="1">
          <mxGeometry x="189.66" y="610" width="140" height="90" as="geometry" />
        </mxCell>
        <mxCell id="6iSSrntmM3O-Yhs3QLni-27" style="edgeStyle=orthogonalEdgeStyle;rounded=0;html=1;labelBackgroundColor=none;startSize=5;endArrow=classicThin;endFill=1;endSize=5;jettySize=auto;orthogonalLoop=1;strokeWidth=1;fontFamily=Verdana;fontSize=8;exitX=0.5;exitY=1;exitDx=0;exitDy=0;entryX=0.5;entryY=0;entryDx=0;entryDy=0;" edge="1" parent="1" source="6iSSrntmM3O-Yhs3QLni-20" target="6iSSrntmM3O-Yhs3QLni-31">
          <mxGeometry relative="1" as="geometry">
            <mxPoint x="540" y="1000" as="sourcePoint" />
            <mxPoint x="740" y="1330" as="targetPoint" />
            <Array as="points">
              <mxPoint x="510" y="1020" />
              <mxPoint x="680" y="1020" />
              <mxPoint x="680" y="1360" />
              <mxPoint x="510" y="1360" />
            </Array>
          </mxGeometry>
        </mxCell>
        <mxCell id="6iSSrntmM3O-Yhs3QLni-28" style="edgeStyle=orthogonalEdgeStyle;rounded=0;html=1;labelBackgroundColor=none;startSize=5;endArrow=classicThin;endFill=1;endSize=5;jettySize=auto;orthogonalLoop=1;strokeWidth=1;fontFamily=Verdana;fontSize=8;exitX=0.5;exitY=1;exitDx=0;exitDy=0;entryX=0.5;entryY=0;entryDx=0;entryDy=0;" edge="1" parent="1" source="6iSSrntmM3O-Yhs3QLni-21" target="6iSSrntmM3O-Yhs3QLni-31">
          <mxGeometry relative="1" as="geometry">
            <mxPoint x="250" y="1250" as="sourcePoint" />
            <mxPoint x="480" y="1610" as="targetPoint" />
          </mxGeometry>
        </mxCell>
        <mxCell id="6iSSrntmM3O-Yhs3QLni-29" style="edgeStyle=orthogonalEdgeStyle;rounded=0;html=1;labelBackgroundColor=none;startSize=5;endArrow=classicThin;endFill=1;endSize=5;jettySize=auto;orthogonalLoop=1;strokeWidth=1;fontFamily=Verdana;fontSize=8;exitX=0.5;exitY=1;exitDx=0;exitDy=0;entryX=0.5;entryY=0;entryDx=0;entryDy=0;" edge="1" parent="1" source="6iSSrntmM3O-Yhs3QLni-23" target="6iSSrntmM3O-Yhs3QLni-31">
          <mxGeometry relative="1" as="geometry">
            <mxPoint x="530" y="990" as="sourcePoint" />
            <mxPoint x="510" y="1520" as="targetPoint" />
          </mxGeometry>
        </mxCell>
        <mxCell id="6iSSrntmM3O-Yhs3QLni-31" value="四舍五入取整&lt;br&gt;更新弹球的实际位置" style="rounded=0;whiteSpace=wrap;html=1;" vertex="1" parent="1">
          <mxGeometry x="450.34" y="1440" width="120" height="60" as="geometry" />
        </mxCell>
        <mxCell id="6iSSrntmM3O-Yhs3QLni-32" style="edgeStyle=orthogonalEdgeStyle;rounded=0;html=1;labelBackgroundColor=none;startSize=5;endArrow=classicThin;endFill=1;endSize=5;jettySize=auto;orthogonalLoop=1;strokeWidth=1;fontFamily=Verdana;fontSize=8;exitX=0.5;exitY=1;exitDx=0;exitDy=0;entryX=0.5;entryY=0;entryDx=0;entryDy=0;" edge="1" parent="1" target="6iSSrntmM3O-Yhs3QLni-33" source="6iSSrntmM3O-Yhs3QLni-31">
          <mxGeometry relative="1" as="geometry">
            <mxPoint x="525.34" y="1590" as="sourcePoint" />
            <mxPoint x="524.9966259765625" y="1659.9966870117187" as="targetPoint" />
          </mxGeometry>
        </mxCell>
        <mxCell id="6iSSrntmM3O-Yhs3QLni-33" value="&lt;font face=&quot;Verdana&quot;&gt;&lt;span style=&quot;font-size: 14px;&quot;&gt;返回撞地次数&lt;/span&gt;&lt;/font&gt;" style="shape=parallelogram;perimeter=parallelogramPerimeter;whiteSpace=wrap;html=1;fixedSize=1;hachureGap=4;fontFamily=Architects Daughter;fontSource=https%3A%2F%2Ffonts.googleapis.com%2Fcss%3Ffamily%3DArchitects%2BDaughter;fontSize=20;" vertex="1" parent="1">
          <mxGeometry x="445.3366259765625" y="1549.9966870117187" width="130" height="70" as="geometry" />
        </mxCell>
        <mxCell id="6iSSrntmM3O-Yhs3QLni-34" value="结束moveBall函数" style="rounded=1;whiteSpace=wrap;html=1;fontSize=12;glass=0;strokeWidth=1;shadow=0;" vertex="1" parent="1">
          <mxGeometry x="450.3366259765625" y="1669.9966870117187" width="120" height="40" as="geometry" />
        </mxCell>
        <mxCell id="6iSSrntmM3O-Yhs3QLni-35" style="edgeStyle=orthogonalEdgeStyle;rounded=0;html=1;labelBackgroundColor=none;startSize=5;endArrow=classicThin;endFill=1;endSize=5;jettySize=auto;orthogonalLoop=1;strokeWidth=1;fontFamily=Verdana;fontSize=8;exitX=0.5;exitY=1;exitDx=0;exitDy=0;entryX=0.5;entryY=0;entryDx=0;entryDy=0;" edge="1" parent="1" source="6iSSrntmM3O-Yhs3QLni-33" target="6iSSrntmM3O-Yhs3QLni-34">
          <mxGeometry relative="1" as="geometry">
            <mxPoint x="520" y="1510" as="sourcePoint" />
            <mxPoint x="520" y="1560" as="targetPoint" />
          </mxGeometry>
        </mxCell>
      </root>
    </mxGraphModel>
  </diagram>
</mxfile>
